<svg height="496pt" viewBox="0 0 496 496" width="496pt" xmlns="http://www.w3.org/2000/svg" xmlns:xlink="http://www.w3.org/1999/xlink"><linearGradient id="a" gradientUnits="userSpaceOnUse" x1="248" x2="248" y1="496" y2="0"><stop offset="0" stop-color="#9f2fff"/><stop offset="1" stop-color="#0bb1d3"/></linearGradient><path d="m96.199219 197.734375-5.503907-15.015625 15.023438-5.503906 5.503906 15.015625zm75.113281-27.550781-5.503906-15.015625-15.023438 5.503906 5.503906 15.015625zm-30.046875 11.015625-5.503906-15.015625-15.027344 5.503906 5.503906 15.015625zm218.734375 98.800781c0 44.113281-35.886719 80-80 80s-80-35.886719-80-80 35.886719-80 80-80 80 35.886719 80 80zm-140.183594-21.550781c6.105469 3.597656 12.960938 5.550781 20.183594 5.550781h23.183594c-2.910156-14.167969-13.441406-25.816406-27.429688-30.136719-7.074218 6.785157-12.5625 15.175781-15.9375 24.585938zm95.046875-32.050781c-10.039062-6.550782-22.007812-10.398438-34.863281-10.398438-10.488281 0-20.359375 2.585938-29.105469 7.070312 17.464844 9.65625 29.105469 28.175782 29.105469 48.929688v8h-40c-8.367188 0-16.351562-1.96875-23.726562-5.441406-.152344 1.800781-.273438 3.601562-.273438 5.441406 0 32.558594 24.457031 59.457031 55.953125 63.441406zm29.136719 53.601562c0-16.273438-6.160156-31.105469-16.199219-42.40625l-38.753906 105.6875c31.007813-4.417969 54.953125-31.074219 54.953125-63.28125zm61.800781 74.496094 90.199219 90.191406v3.3125c0 26.472656-21.527344 48-48 48h-3.3125l-90.199219-90.191406 8-8-23.046875-23.046875c-17.25 10.855469-37.59375 17.238281-59.441406 17.238281-2.921875 0-5.785156-.214844-8.65625-.441406l-3.734375 10.183594c-8.394531 22.882812-30.402344 38.25-54.769531 38.25-15.574219 0-30.222656-6.070313-41.246094-17.089844l-154.503906-154.503906c-11.027344-11.015626-17.089844-25.65625-17.089844-41.238282 0-24.375 15.367188-46.382812 38.246094-54.769531l190.441406-69.832031c9.746094-3.574219 18.777344-9.34375 26.128906-16.6875l45.871094-45.871094-4.6875-4.6875v-3.3125c0-17.648438 14.351562-32 32-32h3.3125l108.6875 108.6875v3.3125c0 17.648438-14.351562 32-32 32h-3.3125l-4.6875-4.6875-45.871094 45.871094c-2.007812 2.015625-3.882812 4.160156-5.632812 6.390625 26.40625 20.515625 43.503906 52.472656 43.503906 88.425781 0 21.847656-6.382812 42.191406-17.246094 59.441406l23.046875 23.046875zm-93.511719-325.519532 98.734376 98.734376c6.402343-1.222657 11.457031-6.277344 12.679687-12.6875l-98.726563-98.734376c-6.402343 1.222657-11.464843 6.277344-12.6875 12.6875zm-57.097656 360.160157c-20.902344-4.753907-39.632812-15.28125-54.304687-29.929688-2.933594.472657-5.902344.792969-8.886719.792969h-40v-8c0-31.273438-10.328125-45.6875-19.441406-58.40625-4.933594-6.890625-9.628906-13.488281-11.589844-21.59375h-24.96875c-30.878906 0-56-25.128906-56-56v-8h40c19.871094 0 37.3125 10.441406 47.257812 26.089844 8.023438-15.960938 22.527344-30.355469 42.742188-42.019532 23.464844-13.535156 52.871094-22.308593 78.59375-23.765624 3.773438-27.242188 27.140625-48.304688 55.40625-48.304688h40v8c0 19.65625-10.199219 36.945312-25.558594 46.9375 5.832032 2.140625 11.4375 4.695312 16.773438 7.734375 2.359375-3.078125 4.855468-6.054687 7.601562-8.800781l45.871094-45.871094-76.6875-76.6875-45.871094 45.871094c-8.984375 8.976562-20.015625 16.03125-31.929687 20.390625l-190.4375 69.832031c-16.601563 6.089844-27.761719 22.066406-27.761719 39.753906 0 11.304688 4.398438 21.9375 12.398438 29.929688l154.511718 154.511718c8 7.992188 18.632813 12.398438 29.9375 12.398438 17.679688 0 33.65625-11.160156 39.746094-27.761719zm72-253.136719h-23.191406c-19.320312 0-35.480469 13.769531-39.191406 32h23.191406c19.320312 0 35.480469-13.769531 39.191406-32zm-159.191406 144c0-36.0625 17.207031-68.113281 43.761719-88.609375-38.625 12.050781-75.761719 38.128906-75.761719 72.609375 0 6.921875 4.007812 12.519531 9.566406 20.273438 5.9375 8.285156 13.25 18.511718 17.875 33.949218 2.496094-3.292968 5.335938-6.335937 8.550782-9.046875-2.527344-9.320312-3.992188-19.070312-3.992188-29.175781zm.808594 64h19.414062c-3.976562-5.679688-7.40625-11.753906-10.285156-18.136719-4.511719 5.199219-7.753906 11.375-9.128906 18.136719zm-88.808594-120h-23.191406c3.710937 18.230469 19.878906 32 39.191406 32h23.191406c-3.710937-18.230469-19.871094-32-39.191406-32zm296 56c0-52.9375-43.0625-96-96-96s-96 43.0625-96 96 43.0625 96 96 96 96-43.0625 96-96zm-2.199219 106.488281 12.6875-12.6875-21.289062-21.289062c-3.886719 4.558593-8.128907 8.800781-12.6875 12.6875zm58.199219 16.824219-28.6875 28.6875 47.847656 47.839844c15.128906-1.488282 27.191406-13.550782 28.679688-28.6875zm-11.3125-11.3125-14.886719-14.886719-28.6875 28.6875 14.886719 14.886719zm35.3125 72c4.414062 0 8-3.585938 8-8s-3.585938-8-8-8-8 3.585938-8 8 3.585938 8 8 8zm-279.839844-81.785156 18.078125 18.082031c4.90625 4.894531 11.683594 7.703125 18.601563 7.703125 8.40625 0 16.375-4.070312 21.328125-10.894531l-12.945313-9.394531c-3.558594 4.898437-11.421875 5.519531-15.6875 1.265624l-18.070312-18.074218zm0 0" fill="url(#a)"/></svg>