<svg height="496pt" viewBox="0 0 496 496" width="496pt" xmlns="http://www.w3.org/2000/svg" xmlns:xlink="http://www.w3.org/1999/xlink"><linearGradient id="a" gradientUnits="userSpaceOnUse" x1="248" x2="248" y1="496" y2="0"><stop offset="0" stop-color="#9f2fff"/><stop offset="1" stop-color="#0bb1d3"/></linearGradient><path d="m256 336c52.9375 0 96-43.0625 96-96s-43.0625-96-96-96-96 43.0625-96 96 43.0625 96 96 96zm48-159.847656c19.382812 14.617187 32 37.75 32 63.847656 0 26.089844-12.617188 49.230469-32 63.847656zm-124.351562 39.96875 31.511718 26.253906c-1.96875 4.152344-3.160156 8.738281-3.160156 13.625 0 17.648438 14.351562 32 32 32s32-14.351562 32-32-14.351562-32-32-32c-6.960938 0-13.351562 2.289062-18.609375 6.070312l-35.078125-29.230468c13.734375-24.34375 39.800781-40.839844 69.6875-40.839844 11.375 0 22.191406 2.425781 32 6.726562v146.546876c-9.808594 4.300781-20.625 6.726562-32 6.726562-44.113281 0-80-35.886719-80-80 0-8.3125 1.28125-16.335938 3.648438-23.878906zm44.351562 39.878906c0-8.824219 7.175781-16 16-16s16 7.175781 16 16-7.175781 16-16 16-16-7.175781-16-16zm-93.808594 58.496094-130.191406 130.191406v3.3125c0 26.472656 21.527344 48 48 48h3.3125l130.191406-130.191406-8-8 11.425782-11.425782c20.351562 13.632813 44.789062 21.617188 71.070312 21.617188 11.0625 0 21.753906-1.558594 32-4.214844v44.214844c0 48.519531 39.480469 88 88 88s88-39.480469 88-88v-344c17.648438 0 32-14.351562 32-32s-14.351562-32-32-32h-176c-17.648438 0-32 14.351562-32 32s14.351562 32 32 32v52.214844c-10.246094-2.65625-20.9375-4.214844-32-4.214844-44.671875 0-84.015625 23.039062-106.921875 57.816406l-24.238281-20.199218c1.96875-4.144532 3.160156-8.730469 3.160156-13.617188 0-2.585938-.390625-5.070312-.976562-7.480469l65.503906-34.933593c5.855468 6.359374 14.167968 10.414062 23.472656 10.414062 17.648438 0 32-14.351562 32-32s-14.351562-32-32-32-32 14.351562-32 32c0 2.585938.390625 5.0625.976562 7.480469l-65.503906 34.933593c-5.855468-6.359374-14.167968-10.414062-23.472656-10.414062-17.648438 0-32 14.351562-32 32s14.351562 32 32 32c6.960938 0 13.351562-2.289062 18.609375-6.070312l26.46875 22.0625c-8.285156 16.945312-13.078125 35.902343-13.078125 56.007812 0 26.28125 7.984375 50.71875 21.617188 71.070312l-11.425782 11.425782zm85.808594-258.496094c8.824219 0 16 7.175781 16 16s-7.175781 16-16 16-16-7.175781-16-16 7.175781-16 16-16zm-120 96c-8.824219 0-16-7.175781-16-16s7.175781-16 16-16 16 7.175781 16 16-7.175781 16-16 16zm-51.160156 327.839844c-15.136719-1.488282-27.199219-13.550782-28.6875-28.6875l87.847656-87.839844 28.6875 28.6875zm99.160156-99.152344-28.6875-28.6875 14.878906-14.878906 28.6875 28.6875zm304-108.6875h-48v16h48v16h-64v16h64v16h-48v16h48v16h-64v16h64v24c0 39.703125-32.296875 72-72 72s-72-32.296875-72-72v-49.425781c42.105469-17.101563 73.039062-55.964844 78.886719-102.574219h65.113281zm0-64h-48v16h48v16h-64c0-19.59375-4.550781-38.097656-12.457031-54.71875 11.65625 3.855469 24 6.71875 36.457031 6.71875 8.847656 0 26.792969-2.695312 40-9.921875zm-40-32c-16.671875 0-34.144531-6.390625-49.449219-12.679688 12.203125-9.695312 29.371094-19.320312 49.449219-19.320312 16.519531 0 40 8.273438 40 16s-23.480469 16-40 16zm40-38.078125c-13.207031-7.226563-31.152344-9.921875-40-9.921875-24.886719 0-45.585938 11.695312-59.96875 23.257812-12.34375-12.800781-27.296875-23.035156-44.03125-29.832031v-57.425781h144zm-176-105.921875c0-8.824219 7.175781-16 16-16h176c8.824219 0 16 7.175781 16 16s-7.175781 16-16 16h-176c-8.824219 0-16-7.175781-16-16zm-128 208c0-61.761719 50.238281-112 112-112s112 50.238281 112 112-50.238281 112-112 112-112-50.238281-112-112zm15.488281 83.824219c3.925781 4.519531 8.167969 8.761719 12.6875 12.6875l-9.984375 9.984375-12.6875-12.6875zm-111.488281 132.175781c0 4.414062-3.585938 8-8 8s-8-3.585938-8-8 3.585938-8 8-8 8 3.585938 8 8zm301.335938-18.183594-10.671876 11.917969c-11.855468-10.613281-18.664062-25.832031-18.664062-41.734375v-24h16v24c0 11.359375 4.855469 22.222656 13.335938 29.816406zm13.335937 7.910156c4.257813 1.503907 8.742187 2.273438 13.328125 2.273438v16c-6.414062 0-12.695312-1.078125-18.671875-3.191406zm0 0" fill="url(#a)"/></svg>