<svg height="496pt" viewBox="0 0 496 496" width="496pt" xmlns="http://www.w3.org/2000/svg" xmlns:xlink="http://www.w3.org/1999/xlink"><linearGradient id="a" gradientUnits="userSpaceOnUse" x1="248" x2="248" y1="496" y2="0"><stop offset="0" stop-color="#9f2fff"/><stop offset="1" stop-color="#0bb1d3"/></linearGradient><path d="m384 32v-32h-328c-30.871094 0-56 25.121094-56 56v384c0 30.878906 25.128906 56 56 56h328v-384h112l-30-40 30-40zm-368 24c0-22.054688 17.945312-40 40-40h8v368h-8c-15.664062 0-29.832031 6.488281-40 16.878906zm352 424h-312c-22.054688 0-40-17.945312-40-40s17.945312-40 40-40h312v16h-312c-13.230469 0-24 10.769531-24 24s10.769531 24 24 24h296v-32h16zm-32-48v16h-280c-4.414062 0-8-3.59375-8-8s3.585938-8 8-8zm-256-48v-368h288v368zm384-288h-80v-48h80l-18 24zm-112-67.3125-75.3125 75.3125h-180.6875v192h65.527344c7.550781 40.894531 43.417968 72 86.472656 72 48.519531 0 88-39.480469 88-88 0-11-2.160156-21.839844-6.121094-32h22.121094zm-240 251.3125v-160h148.6875l-128 128h33.433594c-3.96875 10.160156-6.121094 21-6.121094 32zm208 0c0 39.695312-32.296875 72-72 72s-72-32.304688-72-72c0-11.167969 2.726562-22.097656 7.65625-32h128.6875c4.929688 9.902344 7.65625 20.832031 7.65625 32zm16-48h-164.6875l164.6875-164.6875zm0 0" fill="url(#a)"/></svg>