<svg height="499pt" viewBox="0 0 499 499.384" width="499pt" xmlns="http://www.w3.org/2000/svg" xmlns:xlink="http://www.w3.org/1999/xlink"><linearGradient id="a" gradientUnits="userSpaceOnUse" x1="249.848" x2="249.848" y1="499.3832" y2="0"><stop offset="0" stop-color="#9f2fff"/><stop offset="1" stop-color="#0bb1d3"/></linearGradient><path d="m272.289062 0c-.074218 0-.144531 0-.210937 0-12.414063.0546875-24.046875 4.960938-32.75 13.816406l-226.742187 230.429688.023437.027344c-7.65625 7.605468-12.417969 18.125-12.417969 29.742187 0 11.191406 4.359375 21.726563 12.28125 29.65625l195.71875 195.710937 291.3125-291.3125-194.527344-194.535156c-8.617187-8.605468-20.519531-13.535156-32.6875-13.535156zm-21.5625 25.03125c5.699219-5.792969 13.296876-8.992188 21.425782-9.03125h.136718c7.589844 0 14.957032 2.992188 20.511719 8.152344l-220.609375 220.609375-.398437-.402344c-6.855469-6.855469-15.703125-10.847656-25.207031-11.855469zm-42.535156 451.730469-184.398437-184.402344c-4.90625-4.902344-7.601563-11.421875-7.601563-18.34375 0-14.304687 11.632813-25.945313 25.9375-25.945313 6.925782 0 13.445313 2.699219 18.34375 7.601563l184.40625 184.398437zm48-48-172.6875-172.691407 220.6875-220.6875 172.6875 172.6875zm-210.34375-162.417969 152 152-11.3125 11.3125-152-152zm154.34375 173.65625c0-4.414062 3.585938-8 8-8 4.417969 0 8 3.585938 8 8s-3.582031 8-8 8c-4.414062 0-8-3.585938-8-8zm68.199219-299.800781c-36.152344 7.351562-60.199219 23.753906-60.199219 43.800781s24.046875 36.449219 60.199219 43.800781c7.351563 36.152344 23.753906 60.199219 43.800781 60.199219s36.449219-24.046875 43.800782-60.199219c36.152343-7.351562 60.199218-23.753906 60.199218-43.800781s-24.046875-36.449219-60.199218-43.800781c-7.351563-36.152344-23.753907-60.199219-43.800782-60.199219s-36.449218 24.046875-43.800781 60.199219zm-2.671875 70.511719c-25.3125-6.175782-41.527344-16.808594-41.527344-26.710938s16.214844-20.535156 41.527344-26.710938c-.964844 8.488282-1.527344 17.390626-1.527344 26.710938s.5625 18.222656 1.527344 26.710938zm92.945312-53.421876c25.3125 6.175782 41.527344 16.808594 41.527344 26.710938s-16.214844 20.535156-41.527344 26.710938c.96875-8.488282 1.527344-17.390626 1.527344-26.710938s-.558594-18.222656-1.527344-26.710938zm-46.472656 114.710938c-9.902344 0-20.535156-16.214844-26.710937-41.527344 8.488281.96875 17.390625 1.527344 26.710937 1.527344 9.320313 0 18.222656-.558594 26.710938-1.527344-6.175782 25.3125-16.804688 41.527344-26.710938 41.527344zm32-88c0 10.625-.785156 20.632812-2.113281 29.886719-9.253906 1.328125-19.261719 2.113281-29.886719 2.113281s-20.632812-.785156-29.886718-2.113281c-1.328126-9.253907-2.113282-19.261719-2.113282-29.886719s.785156-20.632812 2.113282-29.886719c9.253906-1.328125 19.261718-2.113281 29.886718-2.113281s20.632813.785156 29.886719 2.113281c1.328125 9.253907 2.113281 19.261719 2.113281 29.886719zm-32-88c9.90625 0 20.535156 16.214844 26.710938 41.527344-8.488282-.96875-17.390625-1.527344-26.710938-1.527344-9.320312 0-18.222656.558594-26.710937 1.527344 6.175781-25.3125 16.808593-41.527344 26.710937-41.527344zm-24 88c0 13.230469 10.769532 24 24 24 13.234375 0 24-10.769531 24-24s-10.765625-24-24-24c-13.230468 0-24 10.769531-24 24zm32 0c0 4.414062-3.582031 8-8 8-4.414062 0-8-3.585938-8-8s3.585938-8 8-8c4.417969 0 8 3.585938 8 8zm-203.3125 72 139.3125 139.3125 59.3125-59.3125-139.3125-139.3125zm139.3125 116.6875-116.6875-116.6875 36.6875-36.6875 116.6875 116.6875zm114.34375-98.34375 72-72 11.3125 11.3125-72 72zm-8 8 11.3125 11.3125-16 16-11.3125-11.3125zm0 0" fill="url(#a)"/></svg>